<svg width="128" height="36" viewBox="0 0 128 36" fill="none" xmlns="http://www.w3.org/2000/svg">
<g clip-path="url(#clip0_557_345)">
<path d="M37.1601 20.4523L25.5893 0.443346C25.4181 0.14734 25.1194 0 24.8194 0C24.5194 0 24.2208 0.14734 24.0496 0.443346L12.4787 20.4523C12.1363 21.0444 12.5637 21.7864 13.2486 21.7864H36.3916C37.0765 21.7864 37.5039 21.0457 37.1615 20.4523H37.1601ZM33.024 19.6201H16.6162C16.2034 19.6201 15.9445 19.1727 16.1516 18.8157L24.3562 4.62992C24.5633 4.27285 25.0783 4.27285 25.2853 4.62992L29.018 11.085C29.3206 11.6093 28.9423 12.265 28.337 12.265H24.5062C23.9513 12.265 23.5027 12.715 23.5027 13.2685C23.5027 13.8234 23.9527 14.272 24.5062 14.272H30.4077C30.6878 14.272 30.948 14.422 31.0887 14.6649L33.4886 18.8157C33.6957 19.1727 33.4368 19.6201 33.024 19.6201Z" fill="#0D0D0D"/>
<path d="M3.1459 35.3031H1.48534L1.24774 35.8779H0L2.31894 31.0289C2.34018 30.9798 2.38266 30.9798 2.40257 31.0289L4.71487 35.8779H3.3981L3.1459 35.3031ZM1.87825 34.3779H2.73972L2.30567 33.3691L1.87825 34.3779Z" fill="#0D0D0D"/>
<path d="M6.35552 33.5019V35.8779H5.15689V31.0502C5.15689 31.0077 5.17813 30.9732 5.25512 31.0356L8.24704 33.5019V31.1126H9.44567V35.9469C9.44567 36.0027 9.42443 36.0239 9.34744 35.9615L6.35552 33.5019Z" fill="#0D0D0D"/>
<path d="M13.0323 35.3031H11.3717L11.1341 35.8779H9.88637L12.2053 31.0289C12.2265 30.9798 12.269 30.9798 12.2889 31.0289L14.6012 35.8779H13.2845L13.0323 35.3031ZM11.7633 34.3779H12.6248L12.1907 33.3691L11.7633 34.3779Z" fill="#0D0D0D"/>
<path d="M16.2406 33.5019V35.8779H15.0419V31.0502C15.0419 31.0077 15.0632 30.9732 15.1402 31.0356L18.1321 33.5019V31.1126H19.3307V35.9469C19.3307 36.0027 19.3095 36.0239 19.2325 35.9615L16.2406 33.5019Z" fill="#0D0D0D"/>
<path d="M19.701 31.1126H21.1028L22.0412 32.8568L22.9797 31.1126H24.3177L22.6571 33.9996V35.8779H21.3815V34.0355L19.6997 31.1139L19.701 31.1126Z" fill="#0D0D0D"/>
<path d="M26.5052 35.3031H24.8447L24.6071 35.8779H23.3593L25.6783 31.0289C25.6995 30.9798 25.742 30.9798 25.7619 31.0289L28.0742 35.8779H26.7574L26.5052 35.3031ZM25.2362 34.3779H26.0977L25.6637 33.3691L25.2362 34.3779Z" fill="#0D0D0D"/>
<path d="M30.2113 31.1126H32.278C33.2244 31.1126 33.8337 31.5466 33.8337 32.3457C33.8337 32.9138 33.5536 33.2284 33.1753 33.3691C33.6173 33.4952 34.0368 33.8178 34.0368 34.4974C34.0368 35.3668 33.3997 35.8779 32.2156 35.8779H30.2113V31.1126ZM32.1028 32.9762C32.4532 32.9762 32.586 32.8156 32.586 32.5488C32.586 32.282 32.4665 32.1147 32.1161 32.1147H31.4431V32.9762H32.1015H32.1028ZM32.2077 34.8757C32.6205 34.8757 32.7612 34.6859 32.7612 34.3779C32.7612 34.07 32.6138 33.8868 32.2077 33.8868H31.4444V34.8744H32.2077V34.8757Z" fill="#0D0D0D"/>
<path d="M34.6872 31.1126H35.9628V35.8779H34.6872V31.1126Z" fill="#0D0D0D"/>
<path d="M38.0933 35.8779H36.8177V31.1126H38.745C39.9569 31.1126 40.6299 31.8267 40.6299 32.801C40.6299 33.4315 40.3286 33.9293 39.7605 34.1881L40.7481 35.8766H39.3676L38.5273 34.3846H38.0933V35.8766V35.8779ZM38.6813 33.4103C39.1154 33.4103 39.3463 33.1926 39.3463 32.801C39.3463 32.4094 39.1154 32.1917 38.6813 32.1917H38.0933V33.4116H38.6813V33.4103Z" fill="#0D0D0D"/>
<path d="M41.3507 31.1126H42.6263V34.8054H44.6519V35.8779H41.352V31.1126H41.3507Z" fill="#0D0D0D"/>
<path d="M48.0699 35.3031H46.4094L46.1718 35.8779H44.924L47.243 31.0289C47.2642 30.9798 47.3067 30.9798 47.3266 31.0289L49.6389 35.8779H48.3221L48.0699 35.3031ZM46.8009 34.3779H47.6624L47.2283 33.3691L46.8009 34.3779Z" fill="#0D0D0D"/>
<path d="M12.1695 26.3871C12.1695 25.5986 12.8186 25.0491 13.5725 25.0491C14.3265 25.0491 14.9756 25.5986 14.9756 26.3871C14.9756 27.1755 14.3265 27.7291 13.5725 27.7291C12.8186 27.7291 12.1695 27.1755 12.1695 26.3871ZM14.2601 26.3871C14.2601 25.9756 14.0105 25.657 13.5725 25.657C13.1345 25.657 12.8849 25.9756 12.8849 26.3871C12.8849 26.7986 13.1345 27.1211 13.5725 27.1211C14.0105 27.1211 14.2601 26.7986 14.2601 26.3871Z" fill="#0D0D0D"/>
<path d="M16.0706 25.0796H17.8467V25.6676H16.7702V26.1986H17.7193V26.7866H16.7702V27.6932H16.0706V25.0796Z" fill="#0D0D0D"/>
<path d="M18.9617 25.0796H20.7377V25.6676H19.6612V26.1986H20.6103V26.7866H19.6612V27.6932H18.9617V25.0796Z" fill="#0D0D0D"/>
<path d="M21.8673 25.0796H22.5669V27.6932H21.8673V25.0796Z" fill="#0D0D0D"/>
<path d="M25.0385 27.7291C24.3044 27.7291 23.6779 27.1755 23.6779 26.3871C23.6779 25.5986 24.3004 25.0491 25 25.0491C25.5654 25.0491 25.9105 25.288 26.1296 25.6106L25.6026 25.9676C25.503 25.8137 25.3411 25.6557 25.0106 25.6557C24.6256 25.6557 24.392 25.9743 24.392 26.3858C24.392 26.7972 24.6336 27.1198 25.0345 27.1198C25.373 27.1198 25.5376 26.9658 25.6491 26.7587L26.1866 27.1052C25.9291 27.5392 25.5681 27.7277 25.0371 27.7277L25.0385 27.7291Z" fill="#0D0D0D"/>
<path d="M27.226 25.0796H29.0591V25.6676H27.9255V26.0977H28.8706V26.6552H27.9255V27.1052H29.1135V27.6932H27.226V25.0796Z" fill="#0D0D0D"/>
<path d="M31.7922 26.3871C31.7922 25.5986 32.4413 25.0491 33.1952 25.0491C33.9492 25.0491 34.5983 25.5986 34.5983 26.3871C34.5983 27.1755 33.9492 27.7291 33.1952 27.7291C32.4413 27.7291 31.7922 27.1755 31.7922 26.3871ZM33.8841 26.3871C33.8841 25.9756 33.6346 25.657 33.1965 25.657C32.7585 25.657 32.509 25.9756 32.509 26.3871C32.509 26.7986 32.7585 27.1211 33.1965 27.1211C33.6346 27.1211 33.8841 26.7986 33.8841 26.3871Z" fill="#0D0D0D"/>
<path d="M35.6947 25.0796H37.4707V25.6676H36.3942V26.1986H37.3433V26.7866H36.3942V27.6932H35.6947V25.0796Z" fill="#0D0D0D"/>
<path d="M9.8253 26.0791H7.44928V26.699H9.8253V26.0791Z" fill="#0D0D0D"/>
<path d="M42.1909 26.0791H39.8149V26.699H42.1909V26.0791Z" fill="#0D0D0D"/>
</g>
<rect width="1" height="36" transform="translate(57.6389)" fill="#E5E5E5"/>
<path d="M127.161 19.536C127.161 19.984 127.129 20.376 127.065 20.712H116.889C116.937 22.072 117.313 23.08 118.017 23.736C118.721 24.392 119.593 24.72 120.633 24.72C121.545 24.72 122.313 24.488 122.937 24.024C123.577 23.56 123.969 22.944 124.113 22.176H127.041C126.865 23.104 126.497 23.928 125.937 24.648C125.377 25.368 124.649 25.936 123.753 26.352C122.857 26.752 121.857 26.952 120.753 26.952C119.473 26.952 118.337 26.68 117.345 26.136C116.369 25.592 115.601 24.808 115.041 23.784C114.481 22.76 114.201 21.552 114.201 20.16C114.201 18.784 114.481 17.584 115.041 16.56C115.601 15.536 116.369 14.752 117.345 14.208C118.337 13.664 119.473 13.392 120.753 13.392C122.049 13.392 123.177 13.664 124.137 14.208C125.113 14.736 125.857 15.472 126.369 16.416C126.897 17.344 127.161 18.384 127.161 19.536ZM124.401 19.464C124.433 18.6 124.281 17.88 123.945 17.304C123.625 16.712 123.177 16.28 122.601 16.008C122.041 15.72 121.425 15.576 120.753 15.576C119.681 15.576 118.785 15.904 118.065 16.56C117.345 17.216 116.953 18.184 116.889 19.464H124.401Z" fill="black"/>
<path d="M106.538 13.392C108.09 13.392 109.33 13.792 110.258 14.592C111.202 15.376 111.778 16.432 111.986 17.76H109.394C109.282 17.04 108.97 16.464 108.458 16.032C107.962 15.584 107.298 15.36 106.466 15.36C105.778 15.36 105.242 15.528 104.858 15.864C104.49 16.184 104.306 16.624 104.306 17.184C104.306 17.6 104.442 17.936 104.714 18.192C104.986 18.448 105.322 18.648 105.722 18.792C106.138 18.936 106.722 19.096 107.474 19.272C108.466 19.496 109.266 19.728 109.874 19.968C110.498 20.208 111.026 20.592 111.458 21.12C111.906 21.632 112.13 22.336 112.13 23.232C112.13 24.336 111.706 25.232 110.858 25.92C110.026 26.608 108.898 26.952 107.474 26.952C105.826 26.952 104.49 26.568 103.466 25.8C102.458 25.032 101.85 23.96 101.642 22.584H104.306C104.386 23.304 104.706 23.888 105.266 24.336C105.826 24.784 106.562 25.008 107.474 25.008C108.13 25.008 108.642 24.84 109.01 24.504C109.394 24.152 109.586 23.712 109.586 23.184C109.586 22.72 109.442 22.352 109.154 22.08C108.866 21.808 108.506 21.6 108.074 21.456C107.642 21.296 107.05 21.136 106.298 20.976C105.338 20.752 104.554 20.528 103.946 20.304C103.354 20.08 102.842 19.72 102.41 19.224C101.994 18.712 101.786 18.024 101.786 17.16C101.786 16.04 102.202 15.136 103.034 14.448C103.882 13.744 105.05 13.392 106.538 13.392Z" fill="black"/>
<path d="M98.8827 9.024V26.784H96.1467V9.024H98.8827Z" fill="black"/>
<path d="M92.8699 13.56V26.784H90.1099V23.904C89.7739 24.88 89.1899 25.64 88.3579 26.184C87.5259 26.712 86.5579 26.976 85.4539 26.976C83.9179 26.976 82.6859 26.48 81.7579 25.488C80.8299 24.496 80.3659 23.08 80.3659 21.24V13.56H83.1019V20.952C83.1019 22.152 83.4059 23.08 84.0139 23.736C84.6219 24.376 85.4539 24.696 86.5099 24.696C87.5979 24.696 88.4699 24.344 89.1259 23.64C89.7819 22.936 90.1099 21.912 90.1099 20.568V13.56H92.8699Z" fill="black"/>
<path d="M69.3749 20.208V26.784H66.6389V9.84H72.3989C74.3509 9.84 75.8149 10.304 76.7909 11.232C77.7829 12.16 78.2789 13.432 78.2789 15.048C78.2789 16.648 77.7749 17.912 76.7669 18.84C75.7589 19.752 74.3029 20.208 72.3989 20.208H69.3749ZM72.1109 17.976C74.3669 17.976 75.4949 17 75.4949 15.048C75.4949 14.088 75.2229 13.36 74.6789 12.864C74.1509 12.352 73.2949 12.096 72.1109 12.096H69.3749V17.976H72.1109Z" fill="black"/>
<defs>
<clipPath id="clip0_557_345">
<rect width="49.6389" height="36" fill="white"/>
</clipPath>
</defs>
</svg>
