<svg width="175" height="36" viewBox="0 0 175 36" fill="none" xmlns="http://www.w3.org/2000/svg">
<g clip-path="url(#clip0_557_345)">
<path d="M37.1601 20.4523L25.5893 0.443346C25.4181 0.14734 25.1194 0 24.8194 0C24.5194 0 24.2208 0.14734 24.0496 0.443346L12.4787 20.4523C12.1363 21.0444 12.5637 21.7864 13.2486 21.7864H36.3916C37.0765 21.7864 37.5039 21.0457 37.1615 20.4523H37.1601ZM33.024 19.6201H16.6162C16.2034 19.6201 15.9445 19.1727 16.1516 18.8157L24.3562 4.62992C24.5633 4.27285 25.0783 4.27285 25.2853 4.62992L29.018 11.085C29.3206 11.6093 28.9423 12.265 28.337 12.265H24.5062C23.9513 12.265 23.5027 12.715 23.5027 13.2685C23.5027 13.8234 23.9527 14.272 24.5062 14.272H30.4077C30.6878 14.272 30.948 14.422 31.0887 14.6649L33.4886 18.8157C33.6957 19.1727 33.4368 19.6201 33.024 19.6201Z" fill="#0D0D0D"/>
<path d="M3.1459 35.3031H1.48534L1.24774 35.8779H0L2.31894 31.0289C2.34018 30.9798 2.38266 30.9798 2.40257 31.0289L4.71487 35.8779H3.3981L3.1459 35.3031ZM1.87825 34.3779H2.73972L2.30567 33.3691L1.87825 34.3779Z" fill="#0D0D0D"/>
<path d="M6.35552 33.5019V35.8779H5.15689V31.0502C5.15689 31.0077 5.17813 30.9732 5.25512 31.0356L8.24704 33.5019V31.1126H9.44567V35.9469C9.44567 36.0027 9.42443 36.0239 9.34744 35.9615L6.35552 33.5019Z" fill="#0D0D0D"/>
<path d="M13.0323 35.3031H11.3717L11.1341 35.8779H9.88637L12.2053 31.0289C12.2265 30.9798 12.269 30.9798 12.2889 31.0289L14.6012 35.8779H13.2845L13.0323 35.3031ZM11.7633 34.3779H12.6248L12.1907 33.3691L11.7633 34.3779Z" fill="#0D0D0D"/>
<path d="M16.2406 33.5019V35.8779H15.0419V31.0502C15.0419 31.0077 15.0632 30.9732 15.1402 31.0356L18.1321 33.5019V31.1126H19.3307V35.9469C19.3307 36.0027 19.3095 36.0239 19.2325 35.9615L16.2406 33.5019Z" fill="#0D0D0D"/>
<path d="M19.701 31.1126H21.1028L22.0412 32.8568L22.9797 31.1126H24.3177L22.6571 33.9996V35.8779H21.3815V34.0355L19.6997 31.1139L19.701 31.1126Z" fill="#0D0D0D"/>
<path d="M26.5052 35.3031H24.8447L24.6071 35.8779H23.3593L25.6783 31.0289C25.6995 30.9798 25.742 30.9798 25.7619 31.0289L28.0742 35.8779H26.7574L26.5052 35.3031ZM25.2362 34.3779H26.0977L25.6637 33.3691L25.2362 34.3779Z" fill="#0D0D0D"/>
<path d="M30.2113 31.1126H32.278C33.2244 31.1126 33.8337 31.5466 33.8337 32.3457C33.8337 32.9138 33.5536 33.2284 33.1753 33.3691C33.6173 33.4952 34.0368 33.8178 34.0368 34.4974C34.0368 35.3668 33.3997 35.8779 32.2156 35.8779H30.2113V31.1126ZM32.1028 32.9762C32.4532 32.9762 32.586 32.8156 32.586 32.5488C32.586 32.282 32.4665 32.1147 32.1161 32.1147H31.4431V32.9762H32.1015H32.1028ZM32.2077 34.8757C32.6205 34.8757 32.7612 34.6859 32.7612 34.3779C32.7612 34.07 32.6138 33.8868 32.2077 33.8868H31.4444V34.8744H32.2077V34.8757Z" fill="#0D0D0D"/>
<path d="M34.6872 31.1126H35.9628V35.8779H34.6872V31.1126Z" fill="#0D0D0D"/>
<path d="M38.0933 35.8779H36.8177V31.1126H38.745C39.9569 31.1126 40.6299 31.8267 40.6299 32.801C40.6299 33.4315 40.3286 33.9293 39.7605 34.1881L40.7481 35.8766H39.3676L38.5273 34.3846H38.0933V35.8766V35.8779ZM38.6813 33.4103C39.1154 33.4103 39.3463 33.1926 39.3463 32.801C39.3463 32.4094 39.1154 32.1917 38.6813 32.1917H38.0933V33.4116H38.6813V33.4103Z" fill="#0D0D0D"/>
<path d="M41.3507 31.1126H42.6263V34.8054H44.6519V35.8779H41.352V31.1126H41.3507Z" fill="#0D0D0D"/>
<path d="M48.0699 35.3031H46.4094L46.1718 35.8779H44.924L47.243 31.0289C47.2642 30.9798 47.3067 30.9798 47.3266 31.0289L49.6389 35.8779H48.3221L48.0699 35.3031ZM46.8009 34.3779H47.6624L47.2283 33.3691L46.8009 34.3779Z" fill="#0D0D0D"/>
<path d="M12.1695 26.3871C12.1695 25.5986 12.8186 25.0491 13.5725 25.0491C14.3265 25.0491 14.9756 25.5986 14.9756 26.3871C14.9756 27.1755 14.3265 27.7291 13.5725 27.7291C12.8186 27.7291 12.1695 27.1755 12.1695 26.3871ZM14.2601 26.3871C14.2601 25.9756 14.0105 25.657 13.5725 25.657C13.1345 25.657 12.8849 25.9756 12.8849 26.3871C12.8849 26.7986 13.1345 27.1211 13.5725 27.1211C14.0105 27.1211 14.2601 26.7986 14.2601 26.3871Z" fill="#0D0D0D"/>
<path d="M16.0706 25.0796H17.8467V25.6676H16.7702V26.1986H17.7193V26.7866H16.7702V27.6932H16.0706V25.0796Z" fill="#0D0D0D"/>
<path d="M18.9617 25.0796H20.7377V25.6676H19.6612V26.1986H20.6103V26.7866H19.6612V27.6932H18.9617V25.0796Z" fill="#0D0D0D"/>
<path d="M21.8673 25.0796H22.5669V27.6932H21.8673V25.0796Z" fill="#0D0D0D"/>
<path d="M25.0385 27.7291C24.3044 27.7291 23.6779 27.1755 23.6779 26.3871C23.6779 25.5986 24.3004 25.0491 25 25.0491C25.5654 25.0491 25.9105 25.288 26.1296 25.6106L25.6026 25.9676C25.503 25.8137 25.3411 25.6557 25.0106 25.6557C24.6256 25.6557 24.392 25.9743 24.392 26.3858C24.392 26.7972 24.6336 27.1198 25.0345 27.1198C25.373 27.1198 25.5376 26.9658 25.6491 26.7587L26.1866 27.1052C25.9291 27.5392 25.5681 27.7277 25.0371 27.7277L25.0385 27.7291Z" fill="#0D0D0D"/>
<path d="M27.226 25.0796H29.0591V25.6676H27.9255V26.0977H28.8706V26.6552H27.9255V27.1052H29.1135V27.6932H27.226V25.0796Z" fill="#0D0D0D"/>
<path d="M31.7922 26.3871C31.7922 25.5986 32.4413 25.0491 33.1952 25.0491C33.9492 25.0491 34.5983 25.5986 34.5983 26.3871C34.5983 27.1755 33.9492 27.7291 33.1952 27.7291C32.4413 27.7291 31.7922 27.1755 31.7922 26.3871ZM33.8841 26.3871C33.8841 25.9756 33.6346 25.657 33.1965 25.657C32.7585 25.657 32.509 25.9756 32.509 26.3871C32.509 26.7986 32.7585 27.1211 33.1965 27.1211C33.6346 27.1211 33.8841 26.7986 33.8841 26.3871Z" fill="#0D0D0D"/>
<path d="M35.6947 25.0796H37.4707V25.6676H36.3942V26.1986H37.3433V26.7866H36.3942V27.6932H35.6947V25.0796Z" fill="#0D0D0D"/>
<path d="M9.8253 26.0791H7.44928V26.699H9.8253V26.0791Z" fill="#0D0D0D"/>
<path d="M42.1909 26.0791H39.8149V26.699H42.1909V26.0791Z" fill="#0D0D0D"/>
</g>
<rect width="1" height="36" transform="translate(57.6389)" fill="#E5E5E5"/>
<circle cx="84.6389" cy="18" r="18" fill="#000099"/>
<path d="M80.4639 21.175C79.7667 20.4779 78.9415 19.9309 77.9776 19.5C78.9415 19.0691 79.7667 18.5221 80.4639 17.825C81.161 17.1278 81.7079 16.3026 82.1389 15.3387C82.5698 16.3026 83.1168 17.1278 83.8139 17.825C84.511 18.5221 85.3363 19.0691 86.3002 19.5C85.3363 19.9309 84.511 20.4779 83.8139 21.175C83.1168 21.8722 82.5698 22.6974 82.1389 23.6613C81.7079 22.6974 81.161 21.8722 80.4639 21.175ZM88.4817 13.1572C88.2291 12.9045 87.9494 12.6872 87.6429 12.5C87.9494 12.3128 88.2291 12.0955 88.4817 11.8428C88.7344 11.5902 88.9516 11.3105 89.1389 11.004C89.3261 11.3105 89.5434 11.5902 89.7961 11.8428C90.0487 12.0955 90.3284 12.3128 90.6349 12.5C90.3284 12.6872 90.0487 12.9045 89.7961 13.1572C89.5434 13.4098 89.3261 13.6895 89.1389 13.996C88.9516 13.6895 88.7344 13.4098 88.4817 13.1572ZM87.8255 25.3134C87.8039 25.2918 87.7819 25.2707 87.7597 25.25C87.7819 25.2293 87.8039 25.2082 87.8255 25.1866C87.8471 25.165 87.8682 25.1431 87.8889 25.1208C87.9096 25.1431 87.9307 25.165 87.9523 25.1866C87.9739 25.2082 87.9958 25.2293 88.018 25.25C87.9958 25.2707 87.9739 25.2918 87.9523 25.3134C87.9307 25.335 87.9096 25.3569 87.8889 25.3792C87.8682 25.3569 87.8471 25.335 87.8255 25.3134Z" stroke="#C3FFC9" stroke-width="1.5" stroke-linejoin="round"/>
<path d="M174.617 19.74C174.617 20.076 174.577 20.444 174.497 20.844H165.209C165.257 21.852 165.513 22.58 165.977 23.028C166.441 23.46 167.033 23.676 167.753 23.676C168.361 23.676 168.865 23.524 169.265 23.22C169.665 22.916 169.929 22.524 170.057 22.044H174.401C174.225 22.988 173.841 23.836 173.249 24.588C172.657 25.324 171.905 25.908 170.993 26.34C170.081 26.756 169.065 26.964 167.945 26.964C166.633 26.964 165.465 26.692 164.441 26.148C163.433 25.588 162.641 24.788 162.065 23.748C161.489 22.708 161.201 21.492 161.201 20.1C161.201 18.692 161.481 17.476 162.041 16.452C162.617 15.412 163.417 14.62 164.441 14.076C165.465 13.516 166.633 13.236 167.945 13.236C169.273 13.236 170.441 13.508 171.449 14.052C172.457 14.596 173.233 15.364 173.777 16.356C174.337 17.332 174.617 18.46 174.617 19.74ZM170.465 19.116C170.481 18.236 170.241 17.58 169.745 17.148C169.265 16.7 168.665 16.476 167.945 16.476C167.193 16.476 166.569 16.7 166.073 17.148C165.577 17.596 165.297 18.252 165.233 19.116H170.465Z" fill="black"/>
<path d="M153.456 13.236C155.152 13.236 156.504 13.66 157.512 14.508C158.536 15.356 159.176 16.476 159.432 17.868H155.592C155.48 17.324 155.224 16.9 154.824 16.596C154.44 16.276 153.952 16.116 153.36 16.116C152.896 16.116 152.544 16.22 152.304 16.428C152.064 16.62 151.944 16.9 151.944 17.268C151.944 17.684 152.16 17.996 152.592 18.204C153.04 18.412 153.736 18.62 154.68 18.828C155.704 19.068 156.544 19.316 157.2 19.572C157.856 19.812 158.424 20.212 158.904 20.772C159.384 21.332 159.624 22.084 159.624 23.028C159.624 23.796 159.416 24.476 159 25.068C158.584 25.66 157.984 26.124 157.2 26.46C156.416 26.796 155.488 26.964 154.416 26.964C152.608 26.964 151.16 26.564 150.072 25.764C148.984 24.964 148.32 23.82 148.08 22.332H152.04C152.104 22.908 152.344 23.348 152.76 23.652C153.192 23.956 153.744 24.108 154.416 24.108C154.88 24.108 155.232 24.004 155.472 23.796C155.712 23.572 155.832 23.284 155.832 22.932C155.832 22.468 155.608 22.14 155.16 21.948C154.728 21.74 154.016 21.524 153.024 21.3C152.032 21.092 151.216 20.868 150.576 20.628C149.936 20.388 149.384 20.004 148.92 19.476C148.456 18.932 148.224 18.196 148.224 17.268C148.224 16.068 148.68 15.1 149.592 14.364C150.504 13.612 151.792 13.236 153.456 13.236Z" fill="black"/>
<path d="M145.751 9.036V26.796H141.647V9.036H145.751Z" fill="black"/>
<path d="M138.818 13.404V26.796H134.69V24.372C134.306 25.156 133.73 25.78 132.962 26.244C132.21 26.708 131.33 26.94 130.322 26.94C128.786 26.94 127.562 26.428 126.65 25.404C125.754 24.38 125.306 22.972 125.306 21.18V13.404H129.386V20.676C129.386 21.588 129.618 22.3 130.082 22.812C130.562 23.308 131.202 23.556 132.002 23.556C132.834 23.556 133.49 23.292 133.97 22.764C134.45 22.236 134.69 21.484 134.69 20.508V13.404H138.818Z" fill="black"/>
<path d="M114.743 20.844V26.796H110.639V9.828H117.287C119.303 9.828 120.839 10.332 121.895 11.34C122.951 12.332 123.479 13.676 123.479 15.372C123.479 16.428 123.239 17.372 122.759 18.204C122.295 19.02 121.599 19.668 120.671 20.148C119.743 20.612 118.615 20.844 117.287 20.844H114.743ZM116.831 17.556C118.479 17.556 119.303 16.828 119.303 15.372C119.303 13.884 118.479 13.14 116.831 13.14H114.743V17.556H116.831Z" fill="black"/>
<defs>
<clipPath id="clip0_557_345">
<rect width="49.6389" height="36" fill="white"/>
</clipPath>
</defs>
</svg>
