<svg width="83" height="60" viewBox="0 0 83 60" fill="none" xmlns="http://www.w3.org/2000/svg">
<g clip-path="url(#clip0_61_1676)">
<path d="M61.9334 34.0872L42.6487 0.738911C42.3633 0.245566 41.8655 0 41.3656 0C40.8656 0 40.3678 0.245566 40.0824 0.738911L20.7977 34.0872C20.227 35.0739 20.9393 36.3106 22.0809 36.3106H60.6525C61.794 36.3106 62.5064 35.0761 61.9356 34.0872H61.9334ZM55.0398 32.7001H27.6935C27.0055 32.7001 26.5741 31.9546 26.9192 31.3595L40.5935 7.71653C40.9386 7.12142 41.797 7.12142 42.1421 7.71653L48.3631 18.475C48.8675 19.3488 48.237 20.4417 47.2282 20.4417H40.8435C39.9187 20.4417 39.1709 21.1917 39.1709 22.1142C39.1709 23.039 39.9209 23.7867 40.8435 23.7867H50.6794C51.1462 23.7867 51.5798 24.0367 51.8143 24.4416L55.8141 31.3595C56.1593 31.9546 55.7279 32.7001 55.0398 32.7001Z" fill="white"/>
<path d="M5.24317 58.8388H2.47557L2.07957 59.7968H0L3.8649 51.7152C3.9003 51.6333 3.97109 51.6333 4.00428 51.7152L7.85812 59.7968H5.66351L5.24317 58.8388ZM3.13042 57.2969H4.5662L3.84278 55.6155L3.13042 57.2969Z" fill="white"/>
<path d="M10.5924 55.8367V59.7967H8.59473V51.7505C8.59473 51.6797 8.63012 51.6222 8.75844 51.7262L13.745 55.8367V51.8545H15.7427V59.9117C15.7427 60.0046 15.7073 60.04 15.579 59.9361L10.5924 55.8367Z" fill="white"/>
<path d="M21.7207 58.8388H18.9531L18.5571 59.7968H16.4775L20.3424 51.7152C20.3778 51.6333 20.4486 51.6333 20.4818 51.7152L24.3357 59.7968H22.141L21.7207 58.8388ZM19.6057 57.2969H21.0415L20.3181 55.6155L19.6057 57.2969Z" fill="white"/>
<path d="M27.0675 55.8367V59.7967H25.0698V51.7505C25.0698 51.6797 25.1052 51.6222 25.2335 51.7262L30.2201 55.8367V51.8545H32.2178V59.9117C32.2178 60.0046 32.1824 60.04 32.0541 59.9361L27.0675 55.8367Z" fill="white"/>
<path d="M32.8352 51.8545H35.1714L36.7355 54.7615L38.2996 51.8545H40.5296L37.762 56.6663V59.7967H35.636V56.726L32.833 51.8567L32.8352 51.8545Z" fill="white"/>
<path d="M44.1753 58.8388H41.4077L41.0117 59.7968H38.9321L42.797 51.7152C42.8324 51.6333 42.9032 51.6333 42.9364 51.7152L46.7902 59.7968H44.5956L44.1753 58.8388ZM42.0603 57.2969H43.4961L42.7727 55.6155L42.0603 57.2969Z" fill="white"/>
<path d="M50.3521 51.8545H53.7966C55.374 51.8545 56.3894 52.5779 56.3894 53.9097C56.3894 54.8566 55.9226 55.3809 55.2921 55.6154C56.0288 55.8256 56.7279 56.3632 56.7279 57.4959C56.7279 58.9449 55.666 59.7967 53.6926 59.7967H50.3521V51.8545ZM53.5046 54.9606C54.0886 54.9606 54.3099 54.6929 54.3099 54.2482C54.3099 53.8035 54.1108 53.5248 53.5267 53.5248H52.4051V54.9606H53.5024H53.5046ZM53.6794 58.1264C54.3674 58.1264 54.6019 57.81 54.6019 57.2968C54.6019 56.7835 54.3563 56.4782 53.6794 56.4782H52.4073V58.1242H53.6794V58.1264Z" fill="white"/>
<path d="M57.812 51.8545H59.938V59.7967H57.812V51.8545Z" fill="white"/>
<path d="M63.4888 59.7967H61.3628V51.8545H64.5751C66.5949 51.8545 67.7165 53.0447 67.7165 54.6685C67.7165 55.7194 67.2144 56.549 66.2675 56.9804L67.9134 59.7945H65.6126L64.2122 57.3078H63.4888V59.7945V59.7967ZM64.4689 55.684C65.1923 55.684 65.5772 55.3212 65.5772 54.6685C65.5772 54.0159 65.1923 53.6531 64.4689 53.6531H63.4888V55.6862H64.4689V55.684Z" fill="white"/>
<path d="M68.918 51.8545H71.044V58.0091H74.42V59.7967H68.9202V51.8545H68.918Z" fill="white"/>
<path d="M80.1162 58.8388H77.3486L76.9526 59.7968H74.873L78.7379 51.7152C78.7733 51.6333 78.8441 51.6333 78.8773 51.7152L82.7312 59.7968H80.5366L80.1162 58.8388ZM78.0012 57.2969H79.437L78.7136 55.6155L78.0012 57.2969Z" fill="white"/>
<path d="M20.2827 43.9785C20.2827 42.6644 21.3645 41.7485 22.6211 41.7485C23.8777 41.7485 24.9595 42.6644 24.9595 43.9785C24.9595 45.2926 23.8777 46.2152 22.6211 46.2152C21.3645 46.2152 20.2827 45.2926 20.2827 43.9785ZM23.7671 43.9785C23.7671 43.2927 23.3512 42.7618 22.6211 42.7618C21.8911 42.7618 21.4751 43.2927 21.4751 43.9785C21.4751 44.6644 21.8911 45.2019 22.6211 45.2019C23.3512 45.2019 23.7671 44.6644 23.7671 43.9785Z" fill="white"/>
<path d="M26.7847 41.7993H29.7447V42.7794H27.9506V43.6643H29.5324V44.6443H27.9506V46.1554H26.7847V41.7993Z" fill="white"/>
<path d="M31.603 41.7993H34.5631V42.7794H32.7689V43.6643H34.3507V44.6443H32.7689V46.1554H31.603V41.7993Z" fill="white"/>
<path d="M36.4458 41.7993H37.6117V46.1554H36.4458V41.7993Z" fill="white"/>
<path d="M41.731 46.2152C40.5076 46.2152 39.4634 45.2926 39.4634 43.9785C39.4634 42.6644 40.5009 41.7485 41.6668 41.7485C42.6093 41.7485 43.1845 42.1467 43.5495 42.6843L42.6712 43.2795C42.5053 43.0228 42.2354 42.7596 41.6845 42.7596C41.043 42.7596 40.6536 43.2905 40.6536 43.9763C40.6536 44.6621 41.0562 45.1997 41.7244 45.1997C42.2885 45.1997 42.5628 44.9431 42.7487 44.598L43.6446 45.1754C43.2155 45.8988 42.6137 46.213 41.7288 46.213L41.731 46.2152Z" fill="white"/>
<path d="M45.377 41.7993H48.4321V42.7794H46.5428V43.4962H48.118V44.4253H46.5428V45.1753H48.5229V46.1554H45.377V41.7993Z" fill="white"/>
<path d="M52.9873 43.9785C52.9873 42.6644 54.0691 41.7485 55.3257 41.7485C56.5823 41.7485 57.6641 42.6644 57.6641 43.9785C57.6641 45.2926 56.5823 46.2152 55.3257 46.2152C54.0691 46.2152 52.9873 45.2926 52.9873 43.9785ZM56.4739 43.9785C56.4739 43.2927 56.058 42.7618 55.3279 42.7618C54.5979 42.7618 54.182 43.2927 54.182 43.9785C54.182 44.6644 54.5979 45.2019 55.3279 45.2019C56.058 45.2019 56.4739 44.6644 56.4739 43.9785Z" fill="white"/>
<path d="M59.4912 41.7993H62.4513V42.7794H60.6571V43.6643H62.2389V44.6443H60.6571V46.1554H59.4912V41.7993Z" fill="white"/>
<path d="M16.3756 43.4653H12.4155V44.4985H16.3756V43.4653Z" fill="white"/>
<path d="M70.3184 43.4653H66.3584V44.4985H70.3184V43.4653Z" fill="white"/>
</g>
<defs>
<clipPath id="clip0_61_1676">
<rect width="82.7315" height="60" fill="white"/>
</clipPath>
</defs>
</svg>
