<svg width="36" height="36" viewBox="0 0 36 36" fill="none" xmlns="http://www.w3.org/2000/svg">
<circle cx="18" cy="18" r="18" fill="#E5E5FF"/>
<path d="M27.0624 23.0203L18.5647 8.3256C18.439 8.10821 18.2196 8 17.9993 8C17.779 8 17.5597 8.10821 17.4339 8.3256L8.93625 23.0203C8.68474 23.4551 8.99864 24 9.50165 24H26.4979C27.001 24 27.3148 23.456 27.0633 23.0203H27.0624ZM24.0248 22.4091H11.9748C11.6716 22.4091 11.4815 22.0805 11.6336 21.8183L17.6591 11.4002C17.8112 11.138 18.1894 11.138 18.3415 11.4002L21.0827 16.1409C21.305 16.5259 21.0272 17.0075 20.5826 17.0075H17.7692C17.3618 17.0075 17.0323 17.338 17.0323 17.7445C17.0323 18.152 17.3627 18.4814 17.7692 18.4814H22.1034C22.3091 18.4814 22.5001 18.5916 22.6035 18.77L24.366 21.8183C24.518 22.0805 24.3279 22.4091 24.0248 22.4091Z" fill="#0D0D0D"/>
</svg>
