<svg width="122" height="36" viewBox="0 0 122 36" fill="none" xmlns="http://www.w3.org/2000/svg">
<path d="M121.045 21.0238C121.045 21.9198 120.981 22.7038 120.853 23.3758H100.501C100.597 26.0958 101.349 28.1118 102.757 29.4238C104.165 30.7358 105.909 31.3918 107.989 31.3918C109.813 31.3918 111.349 30.9278 112.597 29.9998C113.877 29.0718 114.661 27.8398 114.949 26.3038H120.805C120.453 28.1598 119.717 29.8078 118.597 31.2478C117.477 32.6878 116.021 33.8238 114.229 34.6558C112.437 35.4558 110.437 35.8558 108.229 35.8558C105.669 35.8558 103.397 35.3118 101.413 34.2238C99.461 33.1358 97.925 31.5678 96.805 29.5198C95.685 27.4718 95.125 25.0558 95.125 22.2718C95.125 19.5198 95.685 17.1198 96.805 15.0718C97.925 13.0238 99.461 11.4558 101.413 10.3678C103.397 9.27984 105.669 8.73584 108.229 8.73584C110.821 8.73584 113.077 9.27984 114.997 10.3678C116.949 11.4238 118.437 12.8958 119.461 14.7838C120.517 16.6398 121.045 18.7198 121.045 21.0238ZM115.525 20.8798C115.589 19.1518 115.285 17.7118 114.613 16.5598C113.973 15.3758 113.077 14.5118 111.925 13.9678C110.805 13.3918 109.573 13.1038 108.229 13.1038C106.085 13.1038 104.293 13.7598 102.853 15.0718C101.413 16.3838 100.629 18.3198 100.501 20.8798H115.525Z" fill="black"/>
<path d="M79.7979 8.73584C82.9019 8.73584 85.3819 9.53584 87.2379 11.1358C89.1259 12.7038 90.2779 14.8158 90.6939 17.4718H85.5099C85.2859 16.0318 84.6619 14.8798 83.6379 14.0158C82.6459 13.1198 81.3179 12.6718 79.6539 12.6718C78.2779 12.6718 77.2059 13.0078 76.4379 13.6798C75.7019 14.3198 75.3339 15.1998 75.3339 16.3198C75.3339 17.1518 75.6059 17.8238 76.1499 18.3358C76.6939 18.8478 77.3659 19.2478 78.1659 19.5358C78.9979 19.8238 80.1659 20.1438 81.6699 20.4958C83.6539 20.9438 85.2539 21.4078 86.4699 21.8878C87.7179 22.3678 88.7739 23.1358 89.6379 24.1918C90.5339 25.2158 90.9819 26.6238 90.9819 28.4158C90.9819 30.6238 90.1339 32.4158 88.4379 33.7918C86.7739 35.1678 84.5179 35.8558 81.6699 35.8558C78.3739 35.8558 75.7019 35.0878 73.6539 33.5518C71.6379 32.0158 70.4219 29.8718 70.0059 27.1198H75.3339C75.4939 28.5598 76.1339 29.7278 77.2539 30.6238C78.3739 31.5198 79.8459 31.9678 81.6699 31.9678C82.9819 31.9678 84.0059 31.6318 84.7419 30.9598C85.5099 30.2558 85.8939 29.3758 85.8939 28.3198C85.8939 27.3918 85.6059 26.6558 85.0299 26.1118C84.4539 25.5678 83.7339 25.1518 82.8699 24.8638C82.0059 24.5438 80.8219 24.2238 79.3179 23.9038C77.3979 23.4558 75.8299 23.0078 74.6139 22.5598C73.4299 22.1118 72.4059 21.3918 71.5419 20.3998C70.7099 19.3758 70.2939 17.9998 70.2939 16.2718C70.2939 14.0318 71.1259 12.2238 72.7899 10.8478C74.4859 9.43984 76.8219 8.73584 79.7979 8.73584Z" fill="black"/>
<path d="M64.4876 0V35.52H59.0156V0H64.4876Z" fill="black"/>
<path d="M52.4621 9.07178V35.5198H46.9421V29.7598C46.2701 31.7118 45.1021 33.2318 43.4381 34.3198C41.7741 35.3758 39.8381 35.9038 37.6301 35.9038C34.5581 35.9038 32.0941 34.9118 30.2381 32.9278C28.3821 30.9438 27.4541 28.1118 27.4541 24.4318V9.07178H32.9261V23.8558C32.9261 26.2558 33.5341 28.1118 34.7501 29.4238C35.9661 30.7038 37.6301 31.3438 39.7421 31.3438C41.9181 31.3438 43.6621 30.6398 44.9741 29.2318C46.2861 27.8238 46.9421 25.7758 46.9421 23.0878V9.07178H52.4621Z" fill="black"/>
<path d="M5.472 22.3678V35.5198H0V1.63184H11.52C15.424 1.63184 18.352 2.55984 20.304 4.41584C22.288 6.27184 23.28 8.81584 23.28 12.0478C23.28 15.2478 22.272 17.7758 20.256 19.6318C18.24 21.4558 15.328 22.3678 11.52 22.3678H5.472ZM10.944 17.9038C15.456 17.9038 17.712 15.9518 17.712 12.0478C17.712 10.1278 17.168 8.67183 16.08 7.67983C15.024 6.65583 13.312 6.14383 10.944 6.14383H5.472V17.9038H10.944Z" fill="black"/>
</svg>
