<svg width="216" height="72" viewBox="0 0 216 72" fill="none" xmlns="http://www.w3.org/2000/svg">
<circle cx="36" cy="36" r="36" fill="#000099"/>
<path d="M27.6499 42.3501C26.2557 40.9558 24.6052 39.8619 22.6774 39C24.6052 38.1381 26.2557 37.0442 27.6499 35.6499C29.0442 34.2557 30.1381 32.6052 31 30.6774C31.8619 32.6052 32.9558 34.2557 34.3501 35.6499C35.7443 37.0442 37.3948 38.1381 39.3226 39C37.3948 39.8619 35.7443 40.9558 34.3501 42.3501C32.9558 43.7443 31.8619 45.3948 31 47.3226C30.1381 45.3948 29.0442 43.7443 27.6499 42.3501ZM43.6857 26.3143C43.1803 25.809 42.621 25.3745 42.008 25C42.621 24.6255 43.1803 24.191 43.6857 23.6857C44.191 23.1803 44.6255 22.621 45 22.008C45.3745 22.621 45.809 23.1803 46.3143 23.6857C46.8197 24.191 47.379 24.6255 47.992 25C47.379 25.3745 46.8197 25.809 46.3143 26.3143C45.809 26.8197 45.3745 27.379 45 27.992C44.6255 27.379 44.191 26.8197 43.6857 26.3143ZM42.3732 50.6268C42.3299 50.5836 42.2861 50.5413 42.2417 50.5C42.2861 50.4587 42.3299 50.4164 42.3732 50.3732C42.4164 50.3299 42.4587 50.2861 42.5 50.2417C42.5413 50.2861 42.5836 50.3299 42.6268 50.3732C42.6701 50.4164 42.7139 50.4587 42.7583 50.5C42.7139 50.5413 42.6701 50.5836 42.6268 50.6268C42.5836 50.6701 42.5413 50.7139 42.5 50.7583C42.4587 50.7139 42.4164 50.6701 42.3732 50.6268Z" stroke="#C3FFC9" stroke-width="3" stroke-linejoin="round"/>
<path d="M215.956 39.4797C215.956 40.1517 215.876 40.8877 215.716 41.6877H197.14C197.236 43.7037 197.748 45.1597 198.676 46.0557C199.604 46.9197 200.788 47.3517 202.228 47.3517C203.444 47.3517 204.452 47.0477 205.252 46.4397C206.052 45.8317 206.58 45.0477 206.836 44.0877H215.524C215.172 45.9757 214.404 47.6717 213.22 49.1757C212.036 50.6477 210.532 51.8157 208.708 52.6797C206.884 53.5117 204.852 53.9277 202.612 53.9277C199.988 53.9277 197.652 53.3837 195.604 52.2957C193.588 51.1757 192.004 49.5757 190.852 47.4957C189.7 45.4157 189.124 42.9837 189.124 40.1997C189.124 37.3837 189.684 34.9517 190.804 32.9037C191.956 30.8237 193.556 29.2397 195.604 28.1517C197.652 27.0317 199.988 26.4717 202.612 26.4717C205.268 26.4717 207.604 27.0157 209.62 28.1037C211.636 29.1917 213.188 30.7277 214.276 32.7117C215.396 34.6637 215.956 36.9197 215.956 39.4797ZM207.652 38.2317C207.684 36.4717 207.204 35.1597 206.212 34.2957C205.252 33.3997 204.052 32.9517 202.612 32.9517C201.108 32.9517 199.86 33.3997 198.868 34.2957C197.876 35.1917 197.316 36.5037 197.188 38.2317H207.652Z" fill="black"/>
<path d="M173.635 26.4717C177.027 26.4717 179.731 27.3197 181.747 29.0157C183.795 30.7117 185.075 32.9517 185.587 35.7357H177.907C177.683 34.6477 177.171 33.7997 176.371 33.1917C175.603 32.5517 174.627 32.2317 173.443 32.2317C172.515 32.2317 171.811 32.4397 171.331 32.8557C170.851 33.2397 170.611 33.7997 170.611 34.5357C170.611 35.3677 171.043 35.9917 171.907 36.4077C172.803 36.8237 174.195 37.2397 176.083 37.6557C178.131 38.1357 179.811 38.6317 181.123 39.1437C182.435 39.6237 183.571 40.4237 184.531 41.5437C185.491 42.6637 185.971 44.1677 185.971 46.0557C185.971 47.5917 185.555 48.9517 184.723 50.1357C183.891 51.3197 182.691 52.2477 181.123 52.9197C179.555 53.5917 177.699 53.9277 175.555 53.9277C171.939 53.9277 169.043 53.1277 166.867 51.5277C164.691 49.9277 163.363 47.6397 162.883 44.6637H170.803C170.931 45.8157 171.411 46.6957 172.243 47.3037C173.107 47.9117 174.211 48.2157 175.555 48.2157C176.483 48.2157 177.187 48.0077 177.667 47.5917C178.147 47.1437 178.387 46.5677 178.387 45.8637C178.387 44.9357 177.939 44.2797 177.043 43.8957C176.179 43.4797 174.755 43.0477 172.771 42.5997C170.787 42.1837 169.155 41.7357 167.875 41.2557C166.595 40.7757 165.491 40.0077 164.563 38.9517C163.635 37.8637 163.171 36.3917 163.171 34.5357C163.171 32.1357 164.083 30.1997 165.907 28.7277C167.731 27.2237 170.307 26.4717 173.635 26.4717Z" fill="black"/>
<path d="M158.224 18.0718V53.5918H150.016V18.0718H158.224Z" fill="black"/>
<path d="M144.359 26.8076V53.5916H136.103V48.7436C135.335 50.3116 134.183 51.5596 132.647 52.4876C131.143 53.4156 129.383 53.8796 127.367 53.8796C124.295 53.8796 121.847 52.8556 120.023 50.8076C118.231 48.7596 117.335 45.9436 117.335 42.3596V26.8076H125.495V41.3516C125.495 43.1756 125.959 44.5996 126.887 45.6236C127.847 46.6156 129.127 47.1116 130.727 47.1116C132.391 47.1116 133.703 46.5836 134.663 45.5276C135.623 44.4716 136.103 42.9676 136.103 41.0156V26.8076H144.359Z" fill="black"/>
<path d="M96.208 41.6878V53.5918H88V19.6558H101.296C105.328 19.6558 108.4 20.6638 110.512 22.6798C112.624 24.6638 113.68 27.3518 113.68 30.7438C113.68 32.8558 113.2 34.7438 112.24 36.4078C111.312 38.0398 109.92 39.3358 108.064 40.2958C106.208 41.2238 103.952 41.6878 101.296 41.6878H96.208ZM100.384 35.1118C103.68 35.1118 105.328 33.6558 105.328 30.7438C105.328 27.7678 103.68 26.2798 100.384 26.2798H96.208V35.1118H100.384Z" fill="black"/>
</svg>
