<svg width="254" height="36" viewBox="0 0 254 36" fill="none" xmlns="http://www.w3.org/2000/svg">
<g clip-path="url(#clip0_1328_2591)">
<path d="M107.488 2.06766H87.524C86.184 2.06766 85.0963 3.1553 85.0963 4.49537V10.3902C85.0963 11.7303 86.184 12.8179 87.524 12.8179C88.8641 12.8179 89.9517 11.7303 89.9517 10.3902V6.92309H107.558C111.241 6.92309 114.381 9.93732 114.318 13.6197C114.259 17.1982 111.326 20.0936 107.733 20.0936H87.5277C86.1877 20.0936 85.1 21.1813 85.1 22.5214V33.576C85.1 34.9161 86.1877 36.0037 87.5277 36.0037C88.8678 36.0037 89.9555 34.9161 89.9555 33.576V24.9491H107.736C114.158 24.9491 119.363 19.6296 119.17 13.1631C118.984 6.94165 113.717 2.07137 107.491 2.07137L107.488 2.06766Z" fill="url(#paint0_linear_1328_2591)"/>
<path d="M129.319 36C130.659 36 131.746 34.9124 131.746 33.5723V4.49537C131.746 3.1553 130.659 2.06766 129.319 2.06766C127.979 2.06766 126.891 3.1553 126.891 4.49537V33.5723C126.891 34.9124 127.979 36 129.319 36ZM154.134 4.49537V16.608H141.453C140.113 16.608 139.026 17.6956 139.026 19.0357C139.026 20.3758 140.113 21.4634 141.453 21.4634H154.134V33.576C154.134 34.9161 155.222 36.0037 156.562 36.0037C157.902 36.0037 158.989 34.9161 158.989 33.576V4.49537C158.989 3.1553 157.902 2.06766 156.562 2.06766C155.222 2.06766 154.134 3.1553 154.134 4.49537Z" fill="url(#paint1_linear_1328_2591)"/>
<path d="M169.135 36C167.795 36 166.707 34.9124 166.707 33.5723V4.49537C166.707 3.1553 167.795 2.06766 169.135 2.06766C170.475 2.06766 171.562 3.1553 171.562 4.49537V33.5723C171.562 34.9124 170.475 36 169.135 36Z" fill="url(#paint2_linear_1328_2591)"/>
<path d="M208.398 4.49537V21.4263C208.398 22.7664 209.485 23.854 210.825 23.854C212.165 23.854 213.253 22.7664 213.253 21.4263V4.49537C213.253 3.1553 212.165 2.06766 210.825 2.06766C209.485 2.06766 208.398 3.1553 208.398 4.49537ZM199.099 31.1483C190.847 31.1483 184.135 24.4368 184.135 16.1848V4.49537C184.135 3.1553 183.048 2.06766 181.708 2.06766C180.367 2.06766 179.28 3.1553 179.28 4.49537V16.1848C179.28 27.1281 188.152 36.0037 199.099 36.0037H210.825C212.165 36.0037 213.253 34.9161 213.253 33.576V33.5649C213.253 32.2248 212.165 31.1372 210.825 31.1372L199.102 31.1483H199.099Z" fill="url(#paint3_linear_1328_2591)"/>
<path d="M59.6053 4.85914C65.5298 4.85914 70.6117 8.25571 72.7202 13.0629C73.1137 13.9612 73.9786 14.5552 74.9586 14.5552C76.7218 14.5552 77.8763 12.7399 77.1673 11.1252C74.309 4.60671 67.5158 0.00741577 59.6053 0.00741577C51.6948 0.00741577 44.9017 4.60671 42.0433 11.1289C41.3343 12.7436 42.4888 14.5589 44.252 14.5589C45.232 14.5589 46.097 13.9612 46.4904 13.0666C48.5989 8.25943 53.6808 4.86285 59.6053 4.86285V4.85914ZM59.6053 31.1483C53.6808 31.1483 48.5989 27.7517 46.4904 22.9445C46.097 22.0462 45.232 21.4522 44.252 21.4522C42.4888 21.4522 41.3343 23.2675 42.0433 24.8822C44.9017 31.4044 51.6948 36.0037 59.6053 36.0037C67.5158 36.0037 74.309 31.4044 77.1673 24.8822C77.8763 23.2675 76.7218 21.4522 74.9586 21.4522C73.9786 21.4522 73.1137 22.0499 72.7202 22.9445C70.6117 27.7517 65.5298 31.1483 59.6053 31.1483Z" fill="url(#paint4_linear_1328_2591)"/>
<path d="M228.075 5.61269C228.506 5.7389 228.963 5.75004 229.397 5.63125C231.264 5.11527 233.514 4.80716 236.068 4.86284C242.523 4.99648 246.963 7.34624 248.165 9.39161C248.577 10.0932 249.357 10.4978 250.174 10.5127C252.052 10.5498 253.307 8.51927 252.356 6.89708C250.033 2.93997 243.863 0.16703 236.168 0.00740905C233.25 -0.0519846 230.54 0.270969 228.161 0.909451C225.77 1.54793 225.7 4.90739 228.075 5.61269ZM242.219 17.3615C241.747 17.2167 228.306 13.2188 222.192 11.3999C220.692 10.9544 219.185 12.0606 219.152 13.6234C219.129 14.6814 219.812 15.6205 220.822 15.9323C225.273 17.2984 237.144 20.94 240.723 21.9868C245.162 23.2823 248.21 24.2846 248.173 26.0478C248.128 28.2305 243.18 31.3042 235.529 31.1483C229.074 31.0146 224.634 28.6649 223.432 26.6195C223.02 25.9179 222.24 25.5133 221.423 25.4984C219.545 25.4613 218.29 27.4918 219.241 29.114C221.561 33.0711 227.734 35.8441 235.425 36.0037C245.337 36.2079 252.902 31.9723 253.025 26.1518C253.125 21.3223 248.158 19.1841 242.219 17.3689V17.3615Z" fill="url(#paint5_linear_1328_2591)"/>
<path d="M9.15779 5.61269C9.58839 5.7389 10.045 5.75004 10.4793 5.63125C12.3465 5.11527 14.596 4.80716 17.1499 4.86284C23.6053 4.99648 28.045 7.34624 29.2477 9.39161C29.6597 10.0932 30.4393 10.4978 31.2559 10.5127C33.1343 10.5498 34.389 8.51927 33.4387 6.89708C31.1186 2.93997 24.9491 0.16703 17.2539 0.00740905C14.3362 -0.0519846 11.6263 0.270969 9.24688 0.909451C6.85628 1.54793 6.78575 4.90739 9.1615 5.61269H9.15779ZM23.3009 17.3615C22.8295 17.2167 9.38794 13.2188 3.2741 11.3999C1.77441 10.9544 0.267293 12.0606 0.233884 13.6234C0.211612 14.6814 0.894639 15.6205 1.90433 15.9323C6.35515 17.2984 18.2265 20.94 21.8049 21.9868C26.2446 23.2823 29.2922 24.2846 29.2551 26.0478C29.2106 28.2305 24.2623 31.3042 16.6117 31.1483C10.1563 31.0146 5.71666 28.6649 4.51394 26.6195C4.1019 25.9179 3.32236 25.5133 2.50569 25.4984C0.627368 25.4613 -0.627324 27.4918 0.322975 29.114C2.64304 33.0711 8.81627 35.8441 16.5078 36.0037C26.4191 36.2079 33.9843 31.9723 34.1068 26.1518C34.2071 21.3223 29.2403 19.1841 23.3009 17.3689V17.3615Z" fill="url(#paint6_linear_1328_2591)"/>
</g>
<defs>
<linearGradient id="paint0_linear_1328_2591" x1="81.9373" y1="9.32111" x2="113.004" y2="27.2543" gradientUnits="userSpaceOnUse">
<stop stop-color="#ED2124"/>
<stop offset="0.07" stop-color="#EE3A22"/>
<stop offset="0.18" stop-color="#F15621"/>
<stop offset="0.28" stop-color="#F26A20"/>
<stop offset="0.38" stop-color="#F37620"/>
<stop offset="0.48" stop-color="#F47B20"/>
<stop offset="0.57" stop-color="#F47F1E"/>
<stop offset="0.67" stop-color="#F58C1B"/>
<stop offset="0.77" stop-color="#F7A215"/>
<stop offset="0.87" stop-color="#FAC00D"/>
<stop offset="0.98" stop-color="#FEE702"/>
<stop offset="1" stop-color="#FFF200"/>
</linearGradient>
<linearGradient id="paint1_linear_1328_2591" x1="124.326" y1="8.28915" x2="161.551" y2="29.7822" gradientUnits="userSpaceOnUse">
<stop stop-color="#ED2124"/>
<stop offset="0.07" stop-color="#EE3A22"/>
<stop offset="0.18" stop-color="#F15621"/>
<stop offset="0.28" stop-color="#F26A20"/>
<stop offset="0.38" stop-color="#F37620"/>
<stop offset="0.48" stop-color="#F47B20"/>
<stop offset="0.57" stop-color="#F47F1E"/>
<stop offset="0.67" stop-color="#F58C1B"/>
<stop offset="0.77" stop-color="#F7A215"/>
<stop offset="0.87" stop-color="#FAC00D"/>
<stop offset="0.98" stop-color="#FEE702"/>
<stop offset="1" stop-color="#FFF200"/>
</linearGradient>
<linearGradient id="paint2_linear_1328_2591" x1="160.734" y1="14.1877" x2="177.531" y2="23.8837" gradientUnits="userSpaceOnUse">
<stop stop-color="#ED2124"/>
<stop offset="0.07" stop-color="#EE3A22"/>
<stop offset="0.18" stop-color="#F15621"/>
<stop offset="0.28" stop-color="#F26A20"/>
<stop offset="0.38" stop-color="#F37620"/>
<stop offset="0.48" stop-color="#F47B20"/>
<stop offset="0.57" stop-color="#F47F1E"/>
<stop offset="0.67" stop-color="#F58C1B"/>
<stop offset="0.77" stop-color="#F7A215"/>
<stop offset="0.87" stop-color="#FAC00D"/>
<stop offset="0.98" stop-color="#FEE702"/>
<stop offset="1" stop-color="#FFF200"/>
</linearGradient>
<linearGradient id="paint3_linear_1328_2591" x1="178.541" y1="5.12643" x2="217.173" y2="27.4325" gradientUnits="userSpaceOnUse">
<stop stop-color="#ED2124"/>
<stop offset="0.07" stop-color="#EE3A22"/>
<stop offset="0.18" stop-color="#F15621"/>
<stop offset="0.28" stop-color="#F26A20"/>
<stop offset="0.38" stop-color="#F37620"/>
<stop offset="0.48" stop-color="#F47B20"/>
<stop offset="0.57" stop-color="#F47F1E"/>
<stop offset="0.67" stop-color="#F58C1B"/>
<stop offset="0.77" stop-color="#F7A215"/>
<stop offset="0.87" stop-color="#FAC00D"/>
<stop offset="0.98" stop-color="#FEE702"/>
<stop offset="1" stop-color="#FFF200"/>
</linearGradient>
<linearGradient id="paint4_linear_1328_2591" x1="43.3611" y1="8.62693" x2="75.8458" y2="27.3805" gradientUnits="userSpaceOnUse">
<stop stop-color="#ED2124"/>
<stop offset="0.07" stop-color="#EE3A22"/>
<stop offset="0.18" stop-color="#F15621"/>
<stop offset="0.28" stop-color="#F26A20"/>
<stop offset="0.38" stop-color="#F37620"/>
<stop offset="0.48" stop-color="#F47B20"/>
<stop offset="0.57" stop-color="#F47F1E"/>
<stop offset="0.67" stop-color="#F58C1B"/>
<stop offset="0.77" stop-color="#F7A215"/>
<stop offset="0.87" stop-color="#FAC00D"/>
<stop offset="0.98" stop-color="#FEE702"/>
<stop offset="1" stop-color="#FFF200"/>
</linearGradient>
<linearGradient id="paint5_linear_1328_2591" x1="221.16" y1="9.54752" x2="252.969" y2="27.915" gradientUnits="userSpaceOnUse">
<stop stop-color="#ED2124"/>
<stop offset="0.07" stop-color="#EE3A22"/>
<stop offset="0.18" stop-color="#F15621"/>
<stop offset="0.28" stop-color="#F26A20"/>
<stop offset="0.38" stop-color="#F37620"/>
<stop offset="0.48" stop-color="#F47B20"/>
<stop offset="0.57" stop-color="#F47F1E"/>
<stop offset="0.67" stop-color="#F58C1B"/>
<stop offset="0.77" stop-color="#F7A215"/>
<stop offset="0.87" stop-color="#FAC00D"/>
<stop offset="0.98" stop-color="#FEE702"/>
<stop offset="1" stop-color="#FFF200"/>
</linearGradient>
<linearGradient id="paint6_linear_1328_2591" x1="2.24213" y1="9.54752" x2="34.0549" y2="27.915" gradientUnits="userSpaceOnUse">
<stop stop-color="#ED2124"/>
<stop offset="0.07" stop-color="#EE3A22"/>
<stop offset="0.18" stop-color="#F15621"/>
<stop offset="0.28" stop-color="#F26A20"/>
<stop offset="0.38" stop-color="#F37620"/>
<stop offset="0.48" stop-color="#F47B20"/>
<stop offset="0.57" stop-color="#F47F1E"/>
<stop offset="0.67" stop-color="#F58C1B"/>
<stop offset="0.77" stop-color="#F7A215"/>
<stop offset="0.87" stop-color="#FAC00D"/>
<stop offset="0.98" stop-color="#FEE702"/>
<stop offset="1" stop-color="#FFF200"/>
</linearGradient>
<clipPath id="clip0_1328_2591">
<rect width="253.025" height="36" fill="white"/>
</clipPath>
</defs>
</svg>
