<svg width="194" height="36" viewBox="0 0 194 36" fill="none" xmlns="http://www.w3.org/2000/svg">
<g clip-path="url(#clip0_1328_2554)">
<path d="M37.1601 20.4523L25.5893 0.443346C25.4181 0.14734 25.1194 0 24.8194 0C24.5194 0 24.2208 0.14734 24.0495 0.443346L12.4787 20.4523C12.1363 21.0444 12.5637 21.7864 13.2486 21.7864H36.3916C37.0765 21.7864 37.5039 21.0457 37.1614 20.4523H37.1601ZM33.024 19.6201H16.6162C16.2034 19.6201 15.9445 19.1727 16.1516 18.8157L24.3562 4.62992C24.5632 4.27285 25.0783 4.27285 25.2853 4.62992L29.0179 11.085C29.3206 11.6093 28.9423 12.265 28.337 12.265H24.5062C23.9513 12.265 23.5027 12.715 23.5027 13.2685C23.5027 13.8234 23.9526 14.272 24.5062 14.272H30.4077C30.6878 14.272 30.948 14.422 31.0887 14.6649L33.4886 18.8157C33.6956 19.1727 33.4368 19.6201 33.024 19.6201Z" fill="#0D0D0D"/>
<path d="M3.1459 35.3031H1.48534L1.24774 35.8779H0L2.31894 31.0289C2.34018 30.9798 2.38266 30.9798 2.40257 31.0289L4.71487 35.8779H3.3981L3.1459 35.3031ZM1.87825 34.3779H2.73972L2.30567 33.3691L1.87825 34.3779Z" fill="#0D0D0D"/>
<path d="M6.35549 33.5019V35.8779H5.15686V31.0502C5.15686 31.0077 5.1781 30.9732 5.25509 31.0356L8.24701 33.5019V31.1126H9.44564V35.9469C9.44564 36.0027 9.4244 36.0239 9.34741 35.9615L6.35549 33.5019Z" fill="#0D0D0D"/>
<path d="M13.0323 35.3031H11.3717L11.1341 35.8779H9.88635L12.2053 31.0289C12.2265 30.9798 12.269 30.9798 12.2889 31.0289L14.6012 35.8779H13.2845L13.0323 35.3031ZM11.7633 34.3779H12.6247L12.1907 33.3691L11.7633 34.3779Z" fill="#0D0D0D"/>
<path d="M16.2406 33.5019V35.8779H15.0419V31.0502C15.0419 31.0077 15.0632 30.9732 15.1402 31.0356L18.1321 33.5019V31.1126H19.3307V35.9469C19.3307 36.0027 19.3095 36.0239 19.2325 35.9615L16.2406 33.5019Z" fill="#0D0D0D"/>
<path d="M19.701 31.1125H21.1028L22.0412 32.8567L22.9797 31.1125H24.3177L22.6571 33.9996V35.8779H21.3815V34.0355L19.6997 31.1139L19.701 31.1125Z" fill="#0D0D0D"/>
<path d="M26.5052 35.3031H24.8447L24.6071 35.8779H23.3593L25.6783 31.0289C25.6995 30.9798 25.742 30.9798 25.7619 31.0289L28.0742 35.8779H26.7574L26.5052 35.3031ZM25.2362 34.3779H26.0977L25.6637 33.3691L25.2362 34.3779Z" fill="#0D0D0D"/>
<path d="M30.2113 31.1125H32.278C33.2245 31.1125 33.8337 31.5466 33.8337 32.3457C33.8337 32.9138 33.5537 33.2284 33.1754 33.3691C33.6174 33.4952 34.0368 33.8178 34.0368 34.4974C34.0368 35.3668 33.3997 35.8779 32.2157 35.8779H30.2113V31.1125ZM32.1028 32.9762C32.4533 32.9762 32.586 32.8156 32.586 32.5488C32.586 32.282 32.4665 32.1147 32.1161 32.1147H31.4431V32.9762H32.1015H32.1028ZM32.2077 34.8757C32.6205 34.8757 32.7612 34.6859 32.7612 34.3779C32.7612 34.07 32.6139 33.8868 32.2077 33.8868H31.4444V34.8744H32.2077V34.8757Z" fill="#0D0D0D"/>
<path d="M34.6872 31.1125H35.9628V35.8779H34.6872V31.1125Z" fill="#0D0D0D"/>
<path d="M38.0933 35.8779H36.8177V31.1125H38.7451C39.957 31.1125 40.6299 31.8267 40.6299 32.801C40.6299 33.4315 40.3286 33.9293 39.7605 34.1881L40.7481 35.8765H39.3676L38.5274 34.3846H38.0933V35.8765V35.8779ZM38.6813 33.4103C39.1154 33.4103 39.3464 33.1926 39.3464 32.801C39.3464 32.4094 39.1154 32.1917 38.6813 32.1917H38.0933V33.4116H38.6813V33.4103Z" fill="#0D0D0D"/>
<path d="M41.3507 31.1125H42.6263V34.8053H44.6519V35.8779H41.352V31.1125H41.3507Z" fill="#0D0D0D"/>
<path d="M48.0699 35.3031H46.4094L46.1718 35.8779H44.924L47.243 31.0289C47.2642 30.9798 47.3067 30.9798 47.3266 31.0289L49.6389 35.8779H48.3221L48.0699 35.3031ZM46.8009 34.3779H47.6624L47.2283 33.3691L46.8009 34.3779Z" fill="#0D0D0D"/>
<path d="M12.1694 26.3871C12.1694 25.5986 12.8185 25.0491 13.5725 25.0491C14.3264 25.0491 14.9755 25.5986 14.9755 26.3871C14.9755 27.1755 14.3264 27.7291 13.5725 27.7291C12.8185 27.7291 12.1694 27.1755 12.1694 26.3871ZM14.2601 26.3871C14.2601 25.9756 14.0105 25.657 13.5725 25.657C13.1344 25.657 12.8849 25.9756 12.8849 26.3871C12.8849 26.7986 13.1344 27.1211 13.5725 27.1211C14.0105 27.1211 14.2601 26.7986 14.2601 26.3871Z" fill="#0D0D0D"/>
<path d="M16.0706 25.0796H17.8467V25.6676H16.7701V26.1986H17.7192V26.7866H16.7701V27.6932H16.0706V25.0796Z" fill="#0D0D0D"/>
<path d="M18.9617 25.0796H20.7377V25.6676H19.6612V26.1986H20.6103V26.7866H19.6612V27.6932H18.9617V25.0796Z" fill="#0D0D0D"/>
<path d="M21.8673 25.0796H22.5668V27.6932H21.8673V25.0796Z" fill="#0D0D0D"/>
<path d="M25.0384 27.7291C24.3044 27.7291 23.6779 27.1755 23.6779 26.3871C23.6779 25.5986 24.3004 25.0491 24.9999 25.0491C25.5654 25.0491 25.9105 25.288 26.1295 25.6106L25.6026 25.9676C25.503 25.8136 25.3411 25.6557 25.0105 25.6557C24.6256 25.6557 24.392 25.9743 24.392 26.3857C24.392 26.7972 24.6336 27.1198 25.0344 27.1198C25.3729 27.1198 25.5375 26.9658 25.649 26.7587L26.1866 27.1052C25.9291 27.5392 25.5681 27.7277 25.0371 27.7277L25.0384 27.7291Z" fill="#0D0D0D"/>
<path d="M27.226 25.0796H29.0591V25.6676H27.9255V26.0977H28.8706V26.6552H27.9255V27.1052H29.1135V27.6932H27.226V25.0796Z" fill="#0D0D0D"/>
<path d="M31.7922 26.3871C31.7922 25.5986 32.4413 25.0491 33.1952 25.0491C33.9492 25.0491 34.5983 25.5986 34.5983 26.3871C34.5983 27.1755 33.9492 27.7291 33.1952 27.7291C32.4413 27.7291 31.7922 27.1755 31.7922 26.3871ZM33.8841 26.3871C33.8841 25.9756 33.6346 25.657 33.1965 25.657C32.7585 25.657 32.509 25.9756 32.509 26.3871C32.509 26.7986 32.7585 27.1211 33.1965 27.1211C33.6346 27.1211 33.8841 26.7986 33.8841 26.3871Z" fill="#0D0D0D"/>
<path d="M35.6947 25.0796H37.4707V25.6676H36.3942V26.1986H37.3433V26.7866H36.3942V27.6932H35.6947V25.0796Z" fill="#0D0D0D"/>
<path d="M9.8253 26.0791H7.44928V26.699H9.8253V26.0791Z" fill="#0D0D0D"/>
<path d="M42.1909 26.0791H39.8149V26.699H42.1909V26.0791Z" fill="#0D0D0D"/>
</g>
<rect width="1" height="36" transform="translate(57.6389)" fill="#E5E5E5"/>
<g clip-path="url(#clip1_1328_2554)">
<path d="M120.383 10.0338H110.401C109.731 10.0338 109.187 10.5776 109.187 11.2477V14.1951C109.187 14.8651 109.731 15.4089 110.401 15.4089C111.071 15.4089 111.615 14.8651 111.615 14.1951V12.4615H120.418C122.259 12.4615 123.829 13.9686 123.798 15.8098C123.768 17.5991 122.302 19.0468 120.505 19.0468H110.403C109.733 19.0468 109.189 19.5906 109.189 20.2607V25.788C109.189 26.458 109.733 27.0018 110.403 27.0018C111.073 27.0018 111.617 26.458 111.617 25.788V21.4745H120.507C123.718 21.4745 126.32 18.8148 126.224 15.5816C126.131 12.4708 123.497 10.0357 120.385 10.0357L120.383 10.0338Z" fill="url(#paint0_linear_1328_2554)"/>
<path d="M131.298 27C131.968 27 132.512 26.4562 132.512 25.7861V11.2477C132.512 10.5776 131.968 10.0338 131.298 10.0338C130.628 10.0338 130.084 10.5776 130.084 11.2477V25.7861C130.084 26.4562 130.628 27 131.298 27ZM143.706 11.2477V17.304H137.366C136.696 17.304 136.152 17.8478 136.152 18.5178C136.152 19.1879 136.696 19.7317 137.366 19.7317H143.706V25.788C143.706 26.458 144.25 27.0018 144.92 27.0018C145.59 27.0018 146.134 26.458 146.134 25.788V11.2477C146.134 10.5776 145.59 10.0338 144.92 10.0338C144.25 10.0338 143.706 10.5776 143.706 11.2477Z" fill="url(#paint1_linear_1328_2554)"/>
<path d="M151.206 27C150.536 27 149.992 26.4562 149.992 25.7861V11.2477C149.992 10.5776 150.536 10.0338 151.206 10.0338C151.876 10.0338 152.42 10.5776 152.42 11.2477V25.7861C152.42 26.4562 151.876 27 151.206 27Z" fill="url(#paint2_linear_1328_2554)"/>
<path d="M170.838 11.2477V19.7131C170.838 20.3832 171.382 20.927 172.052 20.927C172.722 20.927 173.265 20.3832 173.265 19.7131V11.2477C173.265 10.5776 172.722 10.0338 172.052 10.0338C171.382 10.0338 170.838 10.5776 170.838 11.2477ZM166.188 24.5741C162.062 24.5741 158.707 21.2184 158.707 17.0924V11.2477C158.707 10.5776 158.163 10.0338 157.493 10.0338C156.823 10.0338 156.279 10.5776 156.279 11.2477V17.0924C156.279 22.564 160.715 27.0018 166.188 27.0018H172.052C172.722 27.0018 173.265 26.458 173.265 25.788V25.7824C173.265 25.1124 172.722 24.5686 172.052 24.5686L166.19 24.5741H166.188Z" fill="url(#paint3_linear_1328_2554)"/>
<path d="M96.4415 11.4296C99.4038 11.4296 101.945 13.1279 102.999 15.5315C103.196 15.9806 103.628 16.2776 104.118 16.2776C105 16.2776 105.577 15.37 105.222 14.5626C103.793 11.3034 100.397 9.00372 96.4415 9.00372C92.4863 9.00372 89.0897 11.3034 87.6605 14.5645C87.306 15.3718 87.8832 16.2794 88.7649 16.2794C89.2549 16.2794 89.6873 15.9806 89.8841 15.5333C90.9383 13.1297 93.4792 11.4314 96.4415 11.4314V11.4296ZM96.4415 24.5742C93.4792 24.5742 90.9383 22.8759 89.8841 20.4723C89.6873 20.0231 89.2549 19.7261 88.7649 19.7261C87.8832 19.7261 87.306 20.6337 87.6605 21.4411C89.0897 24.7022 92.4863 27.0019 96.4415 27.0019C100.397 27.0019 103.793 24.7022 105.222 21.4411C105.577 20.6337 105 19.7261 104.118 19.7261C103.628 19.7261 103.196 20.025 102.999 20.4723C101.945 22.8759 99.4038 24.5742 96.4415 24.5742Z" fill="url(#paint4_linear_1328_2554)"/>
<path d="M180.677 11.8064C180.892 11.8695 181.12 11.875 181.337 11.8156C182.271 11.5576 183.396 11.4036 184.673 11.4314C187.9 11.4983 190.12 12.6731 190.722 13.6958C190.928 14.0466 191.317 14.2489 191.726 14.2563C192.665 14.2749 193.292 13.2596 192.817 12.4486C191.655 10.47 188.57 9.08353 184.723 9.00372C183.264 8.97402 181.909 9.1355 180.719 9.45474C179.524 9.77398 179.489 11.4537 180.677 11.8064ZM187.748 17.6808C187.512 17.6084 180.792 15.6094 177.735 14.6999C176.985 14.4772 176.231 15.0303 176.215 15.8117C176.204 16.3407 176.545 16.8103 177.05 16.9662C179.275 17.6492 185.211 19.47 187 19.9934C189.22 20.6412 190.744 21.1423 190.725 22.0239C190.703 23.1153 188.229 24.6521 184.404 24.5741C181.176 24.5073 178.956 23.3324 178.355 22.3098C178.149 21.959 177.759 21.7567 177.351 21.7492C176.411 21.7307 175.784 22.7459 176.259 23.557C177.419 25.5356 180.506 26.9221 184.352 27.0019C189.307 27.1039 193.09 24.9862 193.151 22.0759C193.201 19.6612 190.718 18.5921 187.748 17.6845V17.6808Z" fill="url(#paint5_linear_1328_2554)"/>
<path d="M71.2177 11.8064C71.4331 11.8695 71.6613 11.875 71.8785 11.8156C72.8121 11.5576 73.9369 11.4036 75.2138 11.4314C78.4415 11.4983 80.6613 12.6731 81.2627 13.6958C81.4687 14.0466 81.8585 14.2489 82.2668 14.2563C83.206 14.2749 83.8333 13.2596 83.3582 12.4486C82.1982 10.47 79.1134 9.08353 75.2658 9.00372C73.8069 8.97402 72.452 9.1355 71.2623 9.45474C70.067 9.77398 70.0317 11.4537 71.2196 11.8064H71.2177ZM78.2893 17.6808C78.0536 17.6084 71.3328 15.6094 68.2759 14.6999C67.5261 14.4772 66.7725 15.0303 66.7558 15.8117C66.7447 16.3407 67.0862 16.8103 67.591 16.9662C69.8164 17.6492 75.7521 19.47 77.5413 19.9934C79.7612 20.6412 81.285 21.1423 81.2664 22.0239C81.2441 23.1153 78.77 24.6521 74.9447 24.5741C71.717 24.5073 69.4972 23.3324 68.8958 22.3098C68.6898 21.959 68.3 21.7567 67.8917 21.7492C66.9525 21.7307 66.3252 22.7459 66.8003 23.557C67.9604 25.5356 71.047 26.9221 74.8927 27.0019C79.8484 27.1039 83.631 24.9862 83.6923 22.0759C83.7424 19.6612 81.259 18.5921 78.2893 17.6845V17.6808Z" fill="url(#paint6_linear_1328_2554)"/>
</g>
<defs>
<linearGradient id="paint0_linear_1328_2554" x1="107.608" y1="13.6605" x2="123.141" y2="22.6271" gradientUnits="userSpaceOnUse">
<stop stop-color="#ED2124"/>
<stop offset="0.07" stop-color="#EE3A22"/>
<stop offset="0.18" stop-color="#F15621"/>
<stop offset="0.28" stop-color="#F26A20"/>
<stop offset="0.38" stop-color="#F37620"/>
<stop offset="0.48" stop-color="#F47B20"/>
<stop offset="0.57" stop-color="#F47F1E"/>
<stop offset="0.67" stop-color="#F58C1B"/>
<stop offset="0.77" stop-color="#F7A215"/>
<stop offset="0.87" stop-color="#FAC00D"/>
<stop offset="0.98" stop-color="#FEE702"/>
<stop offset="1" stop-color="#FFF200"/>
</linearGradient>
<linearGradient id="paint1_linear_1328_2554" x1="128.802" y1="13.1446" x2="147.414" y2="23.8911" gradientUnits="userSpaceOnUse">
<stop stop-color="#ED2124"/>
<stop offset="0.07" stop-color="#EE3A22"/>
<stop offset="0.18" stop-color="#F15621"/>
<stop offset="0.28" stop-color="#F26A20"/>
<stop offset="0.38" stop-color="#F37620"/>
<stop offset="0.48" stop-color="#F47B20"/>
<stop offset="0.57" stop-color="#F47F1E"/>
<stop offset="0.67" stop-color="#F58C1B"/>
<stop offset="0.77" stop-color="#F7A215"/>
<stop offset="0.87" stop-color="#FAC00D"/>
<stop offset="0.98" stop-color="#FEE702"/>
<stop offset="1" stop-color="#FFF200"/>
</linearGradient>
<linearGradient id="paint2_linear_1328_2554" x1="147.006" y1="16.0938" x2="155.405" y2="20.9418" gradientUnits="userSpaceOnUse">
<stop stop-color="#ED2124"/>
<stop offset="0.07" stop-color="#EE3A22"/>
<stop offset="0.18" stop-color="#F15621"/>
<stop offset="0.28" stop-color="#F26A20"/>
<stop offset="0.38" stop-color="#F37620"/>
<stop offset="0.48" stop-color="#F47B20"/>
<stop offset="0.57" stop-color="#F47F1E"/>
<stop offset="0.67" stop-color="#F58C1B"/>
<stop offset="0.77" stop-color="#F7A215"/>
<stop offset="0.87" stop-color="#FAC00D"/>
<stop offset="0.98" stop-color="#FEE702"/>
<stop offset="1" stop-color="#FFF200"/>
</linearGradient>
<linearGradient id="paint3_linear_1328_2554" x1="155.909" y1="11.5632" x2="175.225" y2="22.7162" gradientUnits="userSpaceOnUse">
<stop stop-color="#ED2124"/>
<stop offset="0.07" stop-color="#EE3A22"/>
<stop offset="0.18" stop-color="#F15621"/>
<stop offset="0.28" stop-color="#F26A20"/>
<stop offset="0.38" stop-color="#F37620"/>
<stop offset="0.48" stop-color="#F47B20"/>
<stop offset="0.57" stop-color="#F47F1E"/>
<stop offset="0.67" stop-color="#F58C1B"/>
<stop offset="0.77" stop-color="#F7A215"/>
<stop offset="0.87" stop-color="#FAC00D"/>
<stop offset="0.98" stop-color="#FEE702"/>
<stop offset="1" stop-color="#FFF200"/>
</linearGradient>
<linearGradient id="paint4_linear_1328_2554" x1="88.3194" y1="13.3135" x2="104.562" y2="22.6903" gradientUnits="userSpaceOnUse">
<stop stop-color="#ED2124"/>
<stop offset="0.07" stop-color="#EE3A22"/>
<stop offset="0.18" stop-color="#F15621"/>
<stop offset="0.28" stop-color="#F26A20"/>
<stop offset="0.38" stop-color="#F37620"/>
<stop offset="0.48" stop-color="#F47B20"/>
<stop offset="0.57" stop-color="#F47F1E"/>
<stop offset="0.67" stop-color="#F58C1B"/>
<stop offset="0.77" stop-color="#F7A215"/>
<stop offset="0.87" stop-color="#FAC00D"/>
<stop offset="0.98" stop-color="#FEE702"/>
<stop offset="1" stop-color="#FFF200"/>
</linearGradient>
<linearGradient id="paint5_linear_1328_2554" x1="177.219" y1="13.7738" x2="193.123" y2="22.9575" gradientUnits="userSpaceOnUse">
<stop stop-color="#ED2124"/>
<stop offset="0.07" stop-color="#EE3A22"/>
<stop offset="0.18" stop-color="#F15621"/>
<stop offset="0.28" stop-color="#F26A20"/>
<stop offset="0.38" stop-color="#F37620"/>
<stop offset="0.48" stop-color="#F47B20"/>
<stop offset="0.57" stop-color="#F47F1E"/>
<stop offset="0.67" stop-color="#F58C1B"/>
<stop offset="0.77" stop-color="#F7A215"/>
<stop offset="0.87" stop-color="#FAC00D"/>
<stop offset="0.98" stop-color="#FEE702"/>
<stop offset="1" stop-color="#FFF200"/>
</linearGradient>
<linearGradient id="paint6_linear_1328_2554" x1="67.7599" y1="13.7738" x2="83.6663" y2="22.9575" gradientUnits="userSpaceOnUse">
<stop stop-color="#ED2124"/>
<stop offset="0.07" stop-color="#EE3A22"/>
<stop offset="0.18" stop-color="#F15621"/>
<stop offset="0.28" stop-color="#F26A20"/>
<stop offset="0.38" stop-color="#F37620"/>
<stop offset="0.48" stop-color="#F47B20"/>
<stop offset="0.57" stop-color="#F47F1E"/>
<stop offset="0.67" stop-color="#F58C1B"/>
<stop offset="0.77" stop-color="#F7A215"/>
<stop offset="0.87" stop-color="#FAC00D"/>
<stop offset="0.98" stop-color="#FEE702"/>
<stop offset="1" stop-color="#FFF200"/>
</linearGradient>
<clipPath id="clip0_1328_2554">
<rect width="49.6389" height="36" fill="white"/>
</clipPath>
<clipPath id="clip1_1328_2554">
<rect width="126.512" height="18" fill="white" transform="translate(66.6389 9)"/>
</clipPath>
</defs>
</svg>
