<svg width="64" height="76" viewBox="0 0 64 76" fill="none" xmlns="http://www.w3.org/2000/svg">
<path d="M18.0884 67.3093C8.83668 67.3093 1.3367 59.8223 1.3367 50.5866L1.3367 18.0583C1.3367 8.82259 8.83669 1.33559 18.0884 1.33559L33.6065 1.33559C42.8582 1.33558 50.3582 8.82258 50.3582 18.0583L50.3582 50.5866C50.3582 59.8223 42.8582 67.3093 33.6065 67.3093L18.0884 67.3093Z" fill="#E48415"/>
<path fill-rule="evenodd" clip-rule="evenodd" d="M18.0884 67.9781C8.46663 67.9781 0.666656 60.1917 0.666656 50.5866L0.666654 18.0582C0.666654 8.45308 8.46664 0.666603 18.0884 0.666602L33.6066 0.666602C43.2283 0.666601 51.0283 8.45308 51.0283 18.0582L51.0283 50.5866C51.0283 60.1917 43.2283 67.9781 33.6066 67.9781L18.0884 67.9781ZM2.00679 50.5866C2.00679 59.4528 9.20677 66.6403 18.0884 66.6403L33.6066 66.6403C42.4882 66.6403 49.6882 59.4528 49.6882 50.5866L49.6882 18.0582C49.6882 9.19193 42.4882 2.00442 33.6066 2.00442L18.0884 2.00442C9.20678 2.00442 2.00679 9.19194 2.00679 18.0582L2.00679 50.5866Z" fill="black"/>
<path d="M16.5249 65.7919C8.75342 65.7919 2.45343 59.5028 2.45343 51.7448L2.45343 27.9986C2.45343 18.7629 9.95342 11.2759 19.2051 11.2759L32.774 11.2759C42.0257 11.2759 49.5257 18.7629 49.5257 27.9986L49.5257 51.0759C49.5257 59.2033 42.9257 65.7919 34.7842 65.7919L16.5249 65.7919Z" fill="#F1B36F"/>
<path d="M17.8228 66.4653L34.2178 66.4653C39.7223 66.4653 44.5473 63.5374 47.2391 59.1447C47.0219 59.4705 46.1987 60.412 44.6427 61.572C42.6976 63.022 40.3639 63.5294 34.2178 64.2144C28.0717 64.8995 25.4855 64.3123 19.6508 64.2144C13.8161 64.1166 13.5243 63.5294 10.996 62.9422C8.97329 62.4724 5.64285 59.5372 4.23047 58.1282C6.77059 63.08 11.9038 66.4653 17.8228 66.4653Z" fill="white"/>
<path d="M9.33331 18.6666C9.33331 17.9302 9.93027 17.3333 10.6666 17.3333H40.6666C41.403 17.3333 42 17.9302 42 18.6666C42 19.403 41.403 19.9999 40.6666 19.9999H10.6666C9.93027 19.9999 9.33331 19.403 9.33331 18.6666Z" fill="#FCFBF9"/>
<path fill-rule="evenodd" clip-rule="evenodd" d="M10.6667 16H40.6667C42.1394 16 43.3333 17.1939 43.3333 18.6667C43.3333 20.1394 42.1394 21.3333 40.6667 21.3333H10.6667C9.19391 21.3333 8 20.1394 8 18.6667C8 17.1939 9.19391 16 10.6667 16ZM10.6667 17.3333C9.93029 17.3333 9.33333 17.9303 9.33333 18.6667C9.33333 19.403 9.93029 20 10.6667 20H40.6667C41.403 20 42 19.403 42 18.6667C42 17.9303 41.403 17.3333 40.6667 17.3333H10.6667Z" fill="black"/>
<path d="M9.33331 30C9.33331 29.2636 9.93027 28.6666 10.6666 28.6666H40.6666C41.403 28.6666 42 29.2636 42 30C42 30.7363 41.403 31.3333 40.6666 31.3333H10.6666C9.93027 31.3333 9.33331 30.7363 9.33331 30Z" fill="#FCFBF9"/>
<path fill-rule="evenodd" clip-rule="evenodd" d="M10.6667 27.3333H40.6667C42.1394 27.3333 43.3333 28.5272 43.3333 29.9999C43.3333 31.4727 42.1394 32.6666 40.6667 32.6666H10.6667C9.19391 32.6666 8 31.4727 8 29.9999C8 28.5272 9.19391 27.3333 10.6667 27.3333ZM10.6667 28.6666C9.93029 28.6666 9.33333 29.2635 9.33333 29.9999C9.33333 30.7363 9.93029 31.3333 10.6667 31.3333H40.6667C41.403 31.3333 42 30.7363 42 29.9999C42 29.2635 41.403 28.6666 40.6667 28.6666H10.6667Z" fill="black"/>
<path d="M9.33331 41.3333C9.33331 40.597 9.93027 40 10.6666 40H40.6666C41.403 40 42 40.597 42 41.3333C42 42.0697 41.403 42.6667 40.6666 42.6667H10.6666C9.93027 42.6667 9.33331 42.0697 9.33331 41.3333Z" fill="#FCFBF9"/>
<path fill-rule="evenodd" clip-rule="evenodd" d="M10.6667 38.6666H40.6667C42.1394 38.6666 43.3333 39.8605 43.3333 41.3333C43.3333 42.8061 42.1394 44 40.6667 44H10.6667C9.19391 44 8 42.8061 8 41.3333C8 39.8605 9.19391 38.6666 10.6667 38.6666ZM10.6667 40C9.93029 40 9.33333 40.5969 9.33333 41.3333C9.33333 42.0697 9.93029 42.6666 10.6667 42.6666H40.6667C41.403 42.6666 42 42.0697 42 41.3333C42 40.5969 41.403 40 40.6667 40H10.6667Z" fill="black"/>
<path d="M9.33331 52.6666C9.33331 51.9302 9.93027 51.3333 10.6666 51.3333H28C28.7364 51.3333 29.3333 51.9302 29.3333 52.6666C29.3333 53.403 28.7364 53.9999 28 53.9999H10.6666C9.93027 53.9999 9.33331 53.403 9.33331 52.6666Z" fill="#FCFBF9"/>
<path fill-rule="evenodd" clip-rule="evenodd" d="M10.6667 50H28C29.4728 50 30.6667 51.1939 30.6667 52.6667C30.6667 54.1394 29.4728 55.3333 28 55.3333H10.6667C9.19391 55.3333 8 54.1394 8 52.6667C8 51.1939 9.19391 50 10.6667 50ZM10.6667 51.3333C9.93029 51.3333 9.33333 51.9303 9.33333 52.6667C9.33333 53.403 9.93029 54 10.6667 54H28C28.7364 54 29.3333 53.403 29.3333 52.6667C29.3333 51.9303 28.7364 51.3333 28 51.3333H10.6667Z" fill="black"/>
<path d="M62 59.3333C62 66.6971 56.0304 72.6667 48.6666 72.6667C41.3028 72.6667 35.3333 66.6971 35.3333 59.3333C35.3333 51.9695 41.3028 46 48.6666 46C56.0304 46 62 51.9695 62 59.3333Z" fill="#C0D3D7"/>
<path fill-rule="evenodd" clip-rule="evenodd" d="M63.3333 59.3333C63.3333 67.4335 56.7668 74 48.6667 74C40.5665 74 34 67.4335 34 59.3333C34 51.2331 40.5665 44.6666 48.6667 44.6666C56.7668 44.6666 63.3333 51.2331 63.3333 59.3333ZM48.6667 72.6666C56.0305 72.6666 62 66.6971 62 59.3333C62 51.9695 56.0305 46 48.6667 46C41.3029 46 35.3333 51.9695 35.3333 59.3333C35.3333 66.6971 41.3029 72.6666 48.6667 72.6666Z" fill="black"/>
<path d="M42.3558 48.4024C42.1593 48.0621 41.7229 47.944 41.3935 48.1583C39.1527 49.6167 37.3971 51.7188 36.3627 54.1961C35.2368 56.8927 35.028 59.8845 35.7684 62.7114C36.5087 65.5383 38.1573 68.0436 40.4605 69.8422C42.5764 71.4944 45.1371 72.466 47.8051 72.6387C48.1972 72.6641 48.5196 72.3472 48.5241 71.9543C48.5285 71.5613 48.2133 71.2414 47.8213 71.2135C45.4653 71.0459 43.2064 70.1808 41.3363 68.7206C39.2789 67.114 37.8063 64.876 37.145 62.3509C36.4836 59.8257 36.6701 57.1531 37.6759 54.7443C38.59 52.5549 40.135 50.6935 42.1063 49.3926C42.4343 49.1761 42.5522 48.7428 42.3558 48.4024Z" fill="white"/>
<path d="M48 48.6667C48 48.2985 48.2985 48 48.6667 48C49.0349 48 49.3333 48.2985 49.3333 48.6667V58.6667C49.3333 59.0349 49.0349 59.3333 48.6667 59.3333C48.2985 59.3333 48 59.0349 48 58.6667V48.6667Z" fill="black"/>
<path d="M49.244 60.8214C48.9251 60.6373 48.8159 60.2295 49 59.9107C49.1841 59.5918 49.5918 59.4826 49.9107 59.6667L55.9731 63.1668C56.2919 63.3509 56.4012 63.7586 56.2171 64.0775C56.033 64.3963 55.6253 64.5056 55.3064 64.3215L49.244 60.8214Z" fill="black"/>
</svg>
